# xmcd CD database file
#
# Track frame offsets:
#	150
#	10663
#	22762
#	33681
#	43993
#	57472
#	69931
#	83536
#	96498
#	110728
#	125457
#	138988
#	153510
#	167716
#	183829
#	197582
#	208746
#	222461
#	236068
#	249403
#	262949
#	276822
#	289980
#
# Disc length: 4052 seconds
#
# Revision: 0
# Processed by: cddbd v1.5.1PL0 Copyright (c) Steve Scherf et al.
# Submitted via: CDex 1.50
#
DISCID=500fd217
DTITLE=John Lee Hooker - The Very Best of John Lee Hooker
DYEAR=1900
DGENRE=Blues
TTITLE0=I'm The Boogie Man
TTITLE1=Lovin' Guitar Man
TTITLE2=Real, Real Gone
TTITLE3=Stutterin' Blues
TTITLE4=My Baby Don't Love Me
TTITLE5=Don't You Remember Me
TTITLE6=Slim's Stomp
TTITLE7=My Baby Left Me
TTITLE8=The Numbers
TTITLE9=Don't Go Baby
TTITLE10=Late Last Night
TTITLE11=I Came to See You Baby
TTITLE12=Who's Been Jivin' You
TTITLE13=Black Man's Blues
TTITLE14=I'm Gonna Kill That Woman
TTITLE15=I Ain't Got Nobody
TTITLE16=Thinking Blues
TTITLE17=Poor Joe
TTITLE18=Nightmare Blues
TTITLE19=Heart Trouble Blues
TTITLE20=Moaning Blues
TTITLE21=Devil's Jump
TTITLE22=Unissued, Untitled Instrumental
EXTD=
EXTT0=
EXTT1=
EXTT2=
EXTT3=
EXTT4=
EXTT5=
EXTT6=
EXTT7=
EXTT8=
EXTT9=
EXTT10=
EXTT11=
EXTT12=
EXTT13=
EXTT14=
EXTT15=
EXTT16=
EXTT17=
EXTT18=
EXTT19=
EXTT20=
EXTT21=
EXTT22=
PLAYORDER=
